<svg xmlns="http://www.w3.org/2000/svg" xmlns:xlink="http://www.w3.org/1999/xlink" viewBox="0,0,256,256" width="100px" height="100px" fill-rule="nonzero"><g fill="#ffffff" fill-rule="nonzero" stroke="none" stroke-width="1" stroke-linecap="butt" stroke-linejoin="miter" stroke-miterlimit="10" stroke-dasharray="" stroke-dashoffset="0" font-family="none" font-weight="none" font-size="none" text-anchor="none" style="mix-blend-mode: normal"><g transform="scale(2.56,2.56)"><path d="M30.30664,17.6543c-7.168,0 -13,5.832 -13,13v39c0,7.168 5.832,13 13,13h39c7.168,0 13,-5.832 13,-13v-39c0,-7.169 -5.831,-13 -13,-13zM30.30664,19.6543h39c6.065,0 11,4.935 11,11v39c0,6.065 -4.935,11 -11,11h-39c-6.065,0 -11,-4.935 -11,-11v-39c0,-6.065 4.935,-11 11,-11zM33.14453,22.65234c-5.976,0 -10.83789,4.86189 -10.83789,10.83789v33.32617c0,5.976 4.86189,10.83594 10.83789,10.83594h33.32617c5.976,0 10.83594,-4.85994 10.83594,-10.83594v-18.66211c0,-0.277 -0.224,-0.5 -0.5,-0.5c-0.276,0 -0.5,0.224 -0.5,0.5v18.66211c0,5.424 -4.41194,9.83789 -9.83594,9.83789h-33.32617c-5.424,0 -9.83789,-4.41389 -9.83789,-9.83789v-33.32617c0,-5.424 4.41389,-9.83789 9.83789,-9.83789h33.66211c0.276,0 0.5,-0.224 0.5,-0.5c0,-0.276 -0.224,-0.5 -0.5,-0.5zM38.82422,35.69531c-2.087,0 -3.60156,1.46252 -3.60156,3.47852c0,2.016 1.48345,3.47852 3.56445,3.47852c2.087,0 3.60352,-1.46223 3.60352,-3.49023c-0.05,-2.041 -1.51841,-3.4668 -3.56641,-3.4668zM38.82422,36.69531c1.521,0 2.52941,0.97947 2.56641,2.48047c0.001,1.459 -1.06872,2.47852 -2.63672,2.47852c-1.489,0 -2.53125,-1.01952 -2.53125,-2.47852c0,-1.46 1.06956,-2.48047 2.60156,-2.48047zM76.80664,37.6543c-0.276,0 -0.5,0.223 -0.5,0.5v2c0,0.276 0.224,0.5 0.5,0.5c0.276,0 0.5,-0.224 0.5,-0.5v-2c0,-0.276 -0.224,-0.5 -0.5,-0.5zM76.80664,41.6543c-0.276,0 -0.5,0.224 -0.5,0.5v4c0,0.276 0.224,0.5 0.5,0.5c0.276,0 0.5,-0.224 0.5,-0.5v-4c0,-0.277 -0.224,-0.5 -0.5,-0.5zM57.57617,44.53125c-2.2,0.013 -3.98349,0.66978 -5.27148,2.05078v-1.42969c0,-0.276 -0.224,-0.5 -0.5,-0.5h-6.07422c-0.137,0 -0.26828,0.0553 -0.36328,0.1543c-0.094,0.099 -0.14272,0.23314 -0.13672,0.36914c0.081,1.749 0,18.80261 0,18.97461c-0.001,0.134 0.05153,0.26147 0.14453,0.35547c0.094,0.094 0.22152,0.14648 0.35352,0.14648h6.07813c0.276,0 0.5,-0.224 0.5,-0.5v-10.61328c0,-0.612 0.05878,-1.06652 0.17578,-1.35352c0.243,-0.6 0.9992,-1.99609 2.7832,-1.99609c2.668,0 2.95703,2.707 2.95703,3.875l0.08203,10.0918c0.002,0.275 0.226,0.49609 0.5,0.49609h6c0.276,0 0.5,-0.224 0.5,-0.5v-10.17773c0,-3.33 -0.82141,-5.83903 -2.44141,-7.45703c-1.32,-1.318 -3.09811,-1.98633 -5.28711,-1.98633zM35.80664,44.6543c-0.276,0 -0.5,0.224 -0.5,0.5v19c0,0.276 0.224,0.5 0.5,0.5h6c0.276,0 0.5,-0.224 0.5,-0.5v-19c0,-0.276 -0.224,-0.5 -0.5,-0.5zM57.56055,45.5332h0.01563c1.915,0 3.45703,0.57036 4.58203,1.69336c1.425,1.423 2.14844,3.69305 2.14844,6.74805v9.67969h-5.00391l-0.08008,-9.5918c0,-3.005 -1.51508,-4.87305 -3.95508,-4.87305c-1.66,0 -3.04794,0.97914 -3.71094,2.61914c-0.168,0.412 -0.25,0.97747 -0.25,1.73047v10.11328h-5.07422c0.013,-2.696 0.06277,-14.97105 0.00977,-17.99805h5.06445v2.30273c-0.056,0.141 -0.03303,0.30441 0.04297,0.44141c0.089,0.157 0.27603,0.25586 0.45703,0.25586c0.208,0 0.38594,-0.16623 0.46094,-0.36523c0.73,-1.2 2.07797,-2.75586 5.29297,-2.75586zM36.30664,45.6543h5v18h-5z"></path></g></g></svg>